<svg width="248" height="30" viewBox="0 0 248 30" fill="none" xmlns="http://www.w3.org/2000/svg">
<path d="M22.3999 1.35992V7.07992L19.8799 7.39992C19.5333 7.13325 19.1999 6.57325 18.8799 5.71992H14.0799V24.2799C15.1466 24.7066 15.8799 25.1466 16.2799 25.5999L15.8799 28.9199H6.51993L6.11993 25.5999C6.4666 25.1466 7.19993 24.7066 8.31993 24.2799V5.71992H3.51993C3.19993 6.57325 2.8666 7.13325 2.51993 7.39992L-6.83442e-05 7.07992V1.35992H22.3999ZM34.9668 29.2399C31.7668 29.2399 29.3535 28.3866 27.7268 26.6799C26.1268 24.9733 25.3268 22.4933 25.3268 19.2399C25.3268 17.2666 25.6068 15.5733 26.1668 14.1599C26.7268 12.7199 27.4868 11.6133 28.4468 10.8399C30.3135 9.34659 32.4868 8.59992 34.9668 8.59992C37.4468 8.59992 39.3401 9.23992 40.6468 10.5199C41.9801 11.7733 42.6468 14.0399 42.6468 17.3199C42.6468 19.2399 41.7001 20.1999 39.8068 20.1999H31.1268C31.2335 21.8799 31.6601 23.0666 32.4068 23.7599C33.1801 24.4533 34.3935 24.7999 36.0468 24.7999C36.9535 24.7999 37.8201 24.6933 38.6468 24.4799C39.4735 24.2666 40.0735 24.0533 40.4468 23.8399L41.0068 23.5199L42.2068 26.7199C42.0468 26.9066 41.8068 27.1466 41.4868 27.4399C41.1935 27.7066 40.4201 28.0799 39.1668 28.5599C37.9401 29.0133 36.5401 29.2399 34.9668 29.2399ZM37.4868 16.6399C37.5401 16.2666 37.5668 15.8133 37.5668 15.2799C37.5668 14.7466 37.3535 14.1866 36.9268 13.5999C36.5001 12.9866 35.7535 12.6799 34.6868 12.6799C33.6468 12.6799 32.8468 12.9999 32.2868 13.6399C31.7268 14.2799 31.3535 15.3599 31.1668 16.8799L37.4868 16.6399ZM55.7027 12.6799C53.2494 12.6799 52.0227 14.7866 52.0227 18.9999C52.0227 21.1333 52.3561 22.6266 53.0227 23.4799C53.7161 24.3066 54.7027 24.7199 55.9827 24.7199C58.0094 24.7199 59.7961 24.5333 61.3427 24.1599L62.5427 27.2399C61.6894 27.7999 60.5427 28.2799 59.1027 28.6799C57.6627 29.0533 56.2627 29.2399 54.9027 29.2399C49.1427 29.2399 46.2627 25.9066 46.2627 19.2399C46.2627 15.3466 47.2627 12.5466 49.2627 10.8399C51.0494 9.34659 53.2227 8.59992 55.7827 8.59992C58.3427 8.59992 60.4761 9.07992 62.1827 10.0399C62.2094 10.3066 62.2227 10.5599 62.2227 10.7999C62.2227 12.3199 61.8761 13.7599 61.1827 15.1199H57.6627C57.2894 14.4533 57.0627 13.6533 56.9827 12.7199C56.6627 12.6933 56.2361 12.6799 55.7027 12.6799ZM65.8306 0.51992C67.3239 0.173253 68.7106 -8.01086e-05 69.9906 -8.01086e-05C71.2706 -8.01086e-05 72.3506 0.0399202 73.2306 0.119921V10.1199C73.8706 9.69325 74.7239 9.33325 75.7906 9.03992C76.8572 8.74659 77.8039 8.59992 78.6306 8.59992C81.2706 8.59992 83.0972 9.23992 84.1106 10.5199C85.1239 11.7999 85.6306 13.7466 85.6306 16.3599V24.4799C86.6706 24.8799 87.4039 25.3333 87.8306 25.8399L87.4306 28.9199H78.2306L77.8306 25.8399C78.2039 25.3333 78.9372 24.8799 80.0306 24.4799V16.5599C80.0306 15.1199 79.7906 14.1599 79.3106 13.6799C78.8572 13.1733 78.0172 12.9199 76.7906 12.9199C75.5639 12.9199 74.3772 13.3466 73.2306 14.1999V24.4799C74.2706 24.8799 75.0039 25.3333 75.4306 25.8399L75.0306 28.9199H65.8306L65.4306 25.8399C65.8039 25.3333 66.5372 24.8799 67.6306 24.4799V4.95992C66.6972 4.63992 65.9639 4.18659 65.4306 3.59992L65.8306 0.51992ZM114.791 28.9199H108.151L99.2709 14.5199L105.951 5.63992C105.204 5.29325 104.684 4.93325 104.391 4.55992L104.791 1.31992H113.911L114.311 4.55992C113.938 4.98659 113.244 5.41325 112.231 5.83992L105.311 14.3599L111.631 23.8799C113.364 24.2533 114.551 24.8266 115.191 25.5999L114.791 28.9199ZM100.831 1.31992L101.231 4.63992C100.804 5.14659 100.071 5.59992 99.0309 5.99992V24.2799C100.098 24.7066 100.831 25.1466 101.231 25.5999L100.831 28.9199H91.4709L91.0709 25.5999C91.4175 25.1466 92.1509 24.7066 93.2709 24.2799V5.99992C92.1775 5.59992 91.4442 5.14659 91.0709 4.63992L91.4709 1.31992H100.831ZM126.749 29.2399C123.602 29.2399 121.269 28.3999 119.749 26.7199C118.229 25.0399 117.469 22.5066 117.469 19.1199C117.469 15.7066 118.309 13.1066 119.989 11.3199C121.696 9.50659 124.136 8.59992 127.309 8.59992C130.482 8.59992 132.829 9.39992 134.349 10.9999C135.896 12.5999 136.669 15.1066 136.669 18.5199C136.669 21.9066 135.802 24.5466 134.069 26.4399C132.362 28.3066 129.922 29.2399 126.749 29.2399ZM123.229 18.7599C123.229 23.0266 124.509 25.1599 127.069 25.1599C128.376 25.1599 129.336 24.6799 129.949 23.7199C130.589 22.7333 130.909 21.1333 130.909 18.9199C130.909 14.7599 129.602 12.6799 126.989 12.6799C125.709 12.6799 124.762 13.1466 124.149 14.0799C123.536 14.9866 123.229 16.5466 123.229 18.7599ZM163.464 5.67992C162.558 5.43992 161.611 5.31992 160.624 5.31992C159.638 5.31992 158.838 5.57325 158.224 6.07992C157.638 6.55992 157.344 7.25325 157.344 8.15992C157.344 9.03992 157.571 9.73325 158.024 10.2399C158.478 10.7466 159.371 11.1866 160.704 11.5599L164.264 12.5999C166.184 13.1599 167.704 14.0399 168.824 15.2399C169.971 16.4133 170.544 18.1466 170.544 20.4399C170.544 23.1599 169.558 25.3066 167.584 26.8799C165.638 28.4533 163.211 29.2399 160.304 29.2399C158.704 29.2399 157.051 29.0399 155.344 28.6399C153.664 28.2133 152.264 27.6266 151.144 26.8799C151.144 26.7199 151.144 26.4133 151.144 25.9599C151.144 25.5066 151.238 24.7333 151.424 23.6399C151.611 22.5466 151.878 21.6533 152.224 20.9599H156.024C156.451 21.7866 156.704 22.8933 156.784 24.2799C157.718 24.6799 158.798 24.8799 160.024 24.8799C161.278 24.8799 162.304 24.5866 163.104 23.9999C163.904 23.4133 164.304 22.5733 164.304 21.4799C164.304 20.9733 164.264 20.5599 164.184 20.2399C164.104 19.8933 163.851 19.5333 163.424 19.1599C163.024 18.7599 162.438 18.4399 161.664 18.1999L157.544 16.9999C153.358 15.7999 151.264 13.1333 151.264 8.99992C151.264 6.57325 152.144 4.63992 153.904 3.19992C155.664 1.73325 157.958 0.999921 160.784 0.999921C163.638 0.999921 166.424 1.63992 169.144 2.91992C169.144 3.07992 169.144 3.38659 169.144 3.83992C169.144 4.29325 169.051 5.06659 168.864 6.15992C168.678 7.25326 168.411 8.14659 168.064 8.83992H164.264C163.811 8.19992 163.544 7.14659 163.464 5.67992ZM181.308 3.87992V8.91992H187.028V12.2799H181.308V22.3999C181.308 23.2533 181.428 23.8799 181.668 24.2799C181.908 24.6533 182.481 24.8399 183.388 24.8399C184.294 24.8399 185.268 24.6399 186.308 24.2399L187.508 27.3599C185.454 28.3999 183.348 28.9199 181.188 28.9199C179.054 28.9199 177.601 28.4666 176.828 27.5599C176.081 26.6266 175.708 25.2799 175.708 23.5199V12.2799H173.908L173.468 9.83992C173.894 9.33325 174.774 8.82659 176.108 8.31992C176.428 6.13325 177.188 4.65325 178.388 3.87992H181.308ZM199.751 29.2399C196.604 29.2399 194.271 28.3999 192.751 26.7199C191.231 25.0399 190.471 22.5066 190.471 19.1199C190.471 15.7066 191.311 13.1066 192.991 11.3199C194.697 9.50659 197.137 8.59992 200.311 8.59992C203.484 8.59992 205.831 9.39992 207.351 10.9999C208.897 12.5999 209.671 15.1066 209.671 18.5199C209.671 21.9066 208.804 24.5466 207.071 26.4399C205.364 28.3066 202.924 29.2399 199.751 29.2399ZM196.231 18.7599C196.231 23.0266 197.511 25.1599 200.071 25.1599C201.377 25.1599 202.337 24.6799 202.951 23.7199C203.591 22.7333 203.911 21.1333 203.911 18.9199C203.911 14.7599 202.604 12.6799 199.991 12.6799C198.711 12.6799 197.764 13.1466 197.151 14.0799C196.537 14.9866 196.231 16.5466 196.231 18.7599ZM225.321 13.8399C223.295 13.8399 221.895 14.2266 221.121 14.9999V24.1599C223.281 24.5599 224.761 25.1199 225.561 25.8399L225.161 28.9199H213.721L213.321 25.8399C213.695 25.3333 214.428 24.8799 215.521 24.4799V13.3599C214.588 13.0399 213.855 12.5866 213.321 11.9999L213.721 8.91992C215.188 8.59992 216.508 8.43992 217.681 8.43992C218.855 8.43992 219.828 8.46659 220.601 8.51992V11.0399C221.215 10.3199 222.001 9.73325 222.961 9.27992C223.921 8.79992 224.788 8.55992 225.561 8.55992C226.361 8.55992 226.908 8.62659 227.201 8.75992L227.081 13.9599C226.548 13.8799 225.961 13.8399 225.321 13.8399ZM240.029 29.2399C236.829 29.2399 234.416 28.3866 232.789 26.6799C231.189 24.9733 230.389 22.4933 230.389 19.2399C230.389 17.2666 230.669 15.5733 231.229 14.1599C231.789 12.7199 232.549 11.6133 233.509 10.8399C235.376 9.34659 237.549 8.59992 240.029 8.59992C242.509 8.59992 244.403 9.23992 245.709 10.5199C247.043 11.7733 247.709 14.0399 247.709 17.3199C247.709 19.2399 246.763 20.1999 244.869 20.1999H236.189C236.296 21.8799 236.723 23.0666 237.469 23.7599C238.243 24.4533 239.456 24.7999 241.109 24.7999C242.016 24.7999 242.883 24.6933 243.709 24.4799C244.536 24.2666 245.136 24.0533 245.509 23.8399L246.069 23.5199L247.269 26.7199C247.109 26.9066 246.869 27.1466 246.549 27.4399C246.256 27.7066 245.483 28.0799 244.229 28.5599C243.003 29.0133 241.603 29.2399 240.029 29.2399ZM242.549 16.6399C242.603 16.2666 242.629 15.8133 242.629 15.2799C242.629 14.7466 242.416 14.1866 241.989 13.5999C241.563 12.9866 240.816 12.6799 239.749 12.6799C238.709 12.6799 237.909 12.9999 237.349 13.6399C236.789 14.2799 236.416 15.3599 236.229 16.8799L242.549 16.6399Z" fill="url(#paint0_linear_428_433)"/>
<defs>
<linearGradient id="paint0_linear_428_433" x1="-0.320068" y1="14.4199" x2="249.68" y2="14.4199" gradientUnits="userSpaceOnUse">
<stop stop-color="white"/>
</linearGradient>
</defs>
</svg>
